# xmcd
#
# Track frame offsets: 
#        150
#        20158
#        59196
#        78633
#        102988
#        123473
#        141990
#        160644
#        178357
#        194332
#        210446
#        233977
#        250135
#        266077
#        279431
#        298199
#        315732
#
# Disc length: 4425 seconds
#
# Revision: 0
# Processed by: cddbd v1.5.2PL0 Copyright (c) Steve Scherf et al.
# Submitted via: ExactAudioCopy v0.95b4
#
DISCID=0f114711
DTITLE=Various Artist - This Is... Soul! CD3
DYEAR=2007
DGENRE=Soul
TTITLE0=Vanessa Williams - The Right Stuff
TTITLE1=The Gap Band - I Don't Believe You Want To Get Up And Dance (O
TTITLE1=ops) 
TTITLE2=Cameo - Word Up
TTITLE3=One Way - Cutie Pie
TTITLE4=Bobby Brown - My Prerogative
TTITLE5=Yarbrough and People - Don't Stop The Music
TTITLE6=Ohio Players - Fire
TTITLE7=Carl Carlton - She's A Bad Mama Jama (She's Built, She's Stack
TTITLE7=ed) 
TTITLE8=Edwin Starr - Contact
TTITLE9=Jermaine Jackson - Let's Get Serious
TTITLE10=Klymaxx - Meeting In The Ladies Room
TTITLE11=Teena Marie - I Need Your Lovin'
TTITLE12=Bonnie Pointer - Heaven Must Have Sent You
TTITLE13=Miracles - Love Machine
TTITLE14=Donna Summer - She Works Hard For The Money
TTITLE15=DeBarge - Rhythm Of The Night
TTITLE16=Willie Hutch - Love Power
EXTD=
EXTT0=
EXTT1=
EXTT2=
EXTT3=
EXTT4=
EXTT5=
EXTT6=
EXTT7=
EXTT8=
EXTT9=
EXTT10=
EXTT11=
EXTT12=
EXTT13=
EXTT14=
EXTT15=
EXTT16=
PLAYORDER=
